<svg width="74" height="74" viewBox="0 0 74 74" fill="none" xmlns="http://www.w3.org/2000/svg">
<path d="M6.66667 0C2.98333 0 0 2.98333 0 6.66667V16.6667C0 18.5067 1.49333 20 3.33333 20H70C71.84 20 73.3333 18.5067 73.3333 16.6667V6.66667C73.3333 2.98333 70.35 0 66.6667 0H6.66667ZM3.33333 26.6667C1.49333 26.6667 0 28.16 0 30V43.3333C0 45.1733 1.49333 46.6667 3.33333 46.6667H70C71.84 46.6667 73.3333 45.1733 73.3333 43.3333V30C73.3333 28.16 71.84 26.6667 70 26.6667H3.33333ZM3.33333 53.3333C1.49333 53.3333 0 54.8267 0 56.6667V66.6667C0 70.35 2.98333 73.3333 6.66667 73.3333H66.6667C70.35 73.3333 73.3333 70.35 73.3333 66.6667V56.6667C73.3333 54.8267 71.84 53.3333 70 53.3333H3.33333Z" fill="black"/>
</svg>
