<svg width="100" height="64" viewBox="0 0 100 64" fill="none" xmlns="http://www.w3.org/2000/svg">
<path d="M50 0C39.3933 0 35 6.80333 35 15C35 17.76 36.3216 20.5339 36.3216 20.5339C35.7916 20.8405 34.9102 21.8152 35.1302 23.5352C35.5402 26.7418 36.9323 27.5505 37.819 27.6172C38.1557 30.6105 41.3767 34.4433 42.5 35V39.4727C40 46.9727 20 45.8333 20 63.3333H80C80 45.8333 60 46.9727 57.5 39.4727V35C58.6267 34.4433 61.8443 30.6105 62.181 27.6172C63.0677 27.5505 64.4598 26.7418 64.8698 23.5352C65.0898 21.8118 64.2084 20.8405 63.6784 20.5339C63.6784 20.5339 65 18.03 65 15C65 8.93 62.6167 3.75 57.5 3.75C57.5 3.75 55.7233 0 50 0ZM75 6.66016C73.2933 6.66016 71.8411 6.96885 70.5078 7.40885C71.2378 9.67219 71.6667 12.1967 71.6667 15C71.6667 16.7733 71.3885 18.3991 71.0352 19.7591C71.5185 21.1891 71.6845 22.7617 71.4779 24.375C71.0079 28.045 69.583 30.5394 67.793 32.1094C67.273 33.3694 66.5609 34.5631 65.7943 35.7031C66.7409 37.6465 68.1267 39.3766 68.75 39.7266V39.7656C75.54 42.949 86.6667 48.3 86.6667 63.3333H100C100 46.8067 83.3333 49.1797 81.25 42.0964V39.7201C82.1867 39.1934 84.8697 35.5741 85.1497 32.7474C85.8864 32.6841 87.0493 31.9232 87.3893 28.8932C87.5727 27.2666 86.8397 26.3512 86.3997 26.0612C86.3997 26.0612 87.5 23.69 87.5 20.8333C87.5 15.1 85.5133 10.2083 81.25 10.2083C81.25 10.2083 79.77 6.66016 75 6.66016ZM25 6.66667C20.23 6.66667 18.75 10.2083 18.75 10.2083C14.4867 10.2083 12.5 15.1065 12.5 20.8398C12.5 23.6998 13.6003 26.0612 13.6003 26.0612C13.1569 26.3479 12.4273 27.2666 12.6107 28.8932C12.9507 31.9232 14.1136 32.6906 14.8503 32.7539C15.1303 35.5806 17.8133 39.1999 18.75 39.7266V42.0964C16.6667 49.1764 0 46.8067 0 63.3333H13.3333C13.3333 48.3 24.46 42.9523 31.25 39.7656V39.7201C31.8733 39.3701 33.2591 37.6498 34.2057 35.7031C33.4391 34.5631 32.727 33.3629 32.207 32.1029C30.417 30.5362 28.9888 28.0417 28.5221 24.375C28.3121 22.7417 28.4845 21.1439 28.9779 19.7005C28.6179 18.3305 28.3333 16.7033 28.3333 15C28.3333 12.2433 28.7236 9.70917 29.4336 7.39583C28.1169 6.96583 26.6833 6.66667 25 6.66667Z" fill="black"/>
</svg>
