<svg width="26" height="25" viewBox="0 0 26 25" fill="none" xmlns="http://www.w3.org/2000/svg">
<g clip-path="url(#clip0_134_245)">
<path d="M13 15.8333C14.841 15.8333 16.3333 14.3409 16.3333 12.5C16.3333 10.659 14.841 9.16666 13 9.16666C11.1591 9.16666 9.66667 10.659 9.66667 12.5C9.66667 14.3409 11.1591 15.8333 13 15.8333Z" fill="black"/>
<path d="M9.875 2.08334L7.96875 4.16668H4.66666C3.52083 4.16668 2.58333 5.10418 2.58333 6.25001V18.75C2.58333 19.8958 3.52083 20.8333 4.66666 20.8333H21.3333C22.4792 20.8333 23.4167 19.8958 23.4167 18.75V6.25001C23.4167 5.10418 22.4792 4.16668 21.3333 4.16668H18.0312L16.125 2.08334H9.875ZM13 17.7083C10.125 17.7083 7.79166 15.375 7.79166 12.5C7.79166 9.62501 10.125 7.29168 13 7.29168C15.875 7.29168 18.2083 9.62501 18.2083 12.5C18.2083 15.375 15.875 17.7083 13 17.7083Z" fill="black"/>
</g>
<defs>
<clipPath id="clip0_134_245">
<rect width="25" height="25" fill="white" transform="translate(0.5)"/>
</clipPath>
</defs>
</svg>
